<svg width="189" height="239" viewBox="0 0 189 239" fill="none" xmlns="http://www.w3.org/2000/svg">
<path d="M180.812 225.277C171.597 234.492 161.661 238.812 151.006 238.236C140.638 237.66 131.495 232.116 123.575 221.605L87.721 174.087C83.6893 168.615 79.2975 165.376 74.5457 164.368C69.794 163.36 65.0422 165.232 60.2904 169.983L54.2428 176.031L41.2834 158.752L47.3311 152.704C51.9389 148.096 54.1708 142.985 54.0268 137.369C53.8828 131.753 51.7229 126.282 47.5471 120.954L11.4769 73.2203C3.55732 62.7088 0.101496 51.4774 1.10944 39.526C2.11739 27.2866 7.22912 16.5592 16.4446 7.34366L23.7883 2.92326e-05L36.7476 17.2792L29.404 24.6228C25.2282 28.7986 23.1403 33.7663 23.1403 39.526C22.9963 45.1417 24.8682 50.6135 28.756 55.9412L64.3942 102.379C68.57 107.707 71.5219 113.682 73.2498 120.306C75.1217 126.786 75.5537 133.553 74.5457 140.609C80.4494 140.465 86.0651 141.905 91.3929 144.929C96.8646 147.808 101.544 151.912 105.432 157.24L140.638 204.542C144.526 209.581 148.918 212.533 153.814 213.397C158.709 214.261 163.389 212.461 167.853 207.997L175.197 200.654L188.156 217.933L180.812 225.277Z" fill="#CCFF00"/>
</svg>
