<svg width="170" height="251" viewBox="0 0 170 251" fill="none" xmlns="http://www.w3.org/2000/svg">
<path d="M8.34293 10.6368C18.4271 2.38072 28.742 -0.932302 39.2878 0.697678C49.547 2.29911 58.0956 8.72238 64.9336 19.9675L95.8979 70.807C99.3671 76.6516 103.416 80.3111 108.044 81.7854C112.673 83.2596 117.587 81.8683 122.786 77.6112L129.404 72.1932L140.586 90.6725L133.968 96.0905C128.926 100.219 126.198 105.084 125.784 110.686C125.37 116.288 126.977 121.947 130.604 127.663L161.762 178.739C168.6 189.984 170.924 201.503 168.736 213.295C166.519 225.374 160.369 235.542 150.284 243.798L142.249 250.377L131.067 231.898L139.103 225.319C143.672 221.578 146.242 216.841 146.814 211.11C147.514 205.536 146.194 199.906 142.854 194.219L111.997 144.475C108.371 138.76 106.026 132.521 104.964 125.758C103.744 119.125 103.985 112.348 105.688 105.427C99.7989 104.985 94.3537 102.995 89.3521 99.4575C84.193 96.0492 79.9434 91.5014 76.6032 85.8144L46.2622 35.2541C42.8934 29.8536 38.8161 26.4807 34.0302 25.1354C29.2442 23.7902 24.409 25.117 19.5245 29.116L11.4887 35.6951L0.307136 17.2158L8.34293 10.6368Z" fill="#CCFF00"/>
</svg>
