<svg width="512" height="512" viewBox="0 0 512 512" fill="none" xmlns="http://www.w3.org/2000/svg">
<rect width="512" height="512" fill="black"/>
<path d="M172.621 457.544C153.166 457.544 138.118 451.616 127.479 439.761C117.143 428.209 113.343 412.706 116.079 393.25L128.39 305.246C129.91 295.214 128.694 287.159 124.743 281.079C120.791 274.999 113.799 271.959 103.767 271.959H91L95.5598 240.041H108.327C118.055 240.041 125.807 237.001 131.582 230.921C137.358 224.841 140.854 216.785 142.07 206.754L154.381 118.293C157.117 98.8382 165.325 83.3348 179.004 71.7833C192.988 59.9278 209.707 54 229.162 54H244.666L240.106 85.9187H224.603C215.787 85.9187 208.339 88.9586 202.26 95.0384C196.18 100.814 192.38 108.566 190.86 118.293L179.46 204.93C178.244 214.962 175.053 224.385 169.885 233.201C165.021 242.016 158.333 249.616 149.822 256C156.205 262.08 160.613 269.527 163.045 278.343C165.781 287.159 166.389 296.43 164.869 306.158L152.102 393.25C150.886 402.674 152.406 410.426 156.661 416.505C160.917 422.585 167.757 425.625 177.181 425.625H192.684L188.124 457.544H172.621Z" fill="#CCFF00"/>
<path d="M339.941 54.2901C359.397 54.2901 374.444 60.2179 385.083 72.0734C395.419 83.6249 399.219 99.1283 396.483 118.584L384.172 206.588C382.652 216.62 383.868 224.675 387.819 230.755C391.771 236.835 398.763 239.875 408.795 239.875H421.562L417.002 271.793H404.235C394.507 271.793 386.755 274.833 380.98 280.913C375.204 286.993 371.708 295.048 370.492 305.08L358.181 393.54C355.445 412.996 347.237 428.499 333.558 440.051C319.574 451.906 302.855 457.834 283.4 457.834H267.896L272.456 425.915H287.959C296.775 425.915 304.223 422.875 310.302 416.796C316.382 411.02 320.182 403.268 321.702 393.54L333.102 306.904C334.318 296.872 337.509 287.449 342.677 278.633C347.541 269.817 354.229 262.218 362.74 255.834C356.357 249.754 351.949 242.307 349.517 233.491C346.781 224.675 346.173 215.404 347.693 205.676L360.46 118.584C361.676 109.16 360.156 101.408 355.901 95.3285C351.645 89.2487 344.805 86.2088 335.381 86.2088H319.878L324.438 54.2901H339.941Z" fill="#CCFF00"/>
</svg>
