<svg width="129" height="18" viewBox="0 0 129 18" fill="none" xmlns="http://www.w3.org/2000/svg">
<path d="M5.66738 17.315C3.31531 17.315 1.96333 15.8519 1.96333 13.8147V12.2775C1.96333 10.7403 1.44476 10.2218 0.277989 10.2218V8.03639C1.44476 8.05491 1.96333 7.53635 1.96333 5.98065V4.44347C1.96333 2.40624 3.31531 0.961664 5.66738 0.961664H6.83415V3.35077C5.27845 3.29521 4.61172 3.77674 4.61172 4.88795V6.16585C4.61172 7.90675 3.61163 8.92536 2.46338 9.07353V9.18465C3.63015 9.33281 4.61172 10.3514 4.61172 12.0923V13.3887C4.61172 14.5185 5.27845 15.0556 6.83415 15V17.315H5.66738ZM123.599 17.315H122.432V15C123.988 15.0556 124.654 14.5185 124.654 13.3887V12.0923C124.654 10.3514 125.636 9.33281 126.803 9.18465V9.07353C125.654 8.92536 124.654 7.90675 124.654 6.16585V4.88795C124.654 3.77674 123.988 3.29521 122.432 3.35077V0.961664H123.599C125.951 0.961664 127.303 2.40624 127.303 4.44347V5.98065C127.303 7.53635 127.821 8.05491 128.988 8.03639V10.2218C127.821 10.2218 127.303 10.7403 127.303 12.2775V13.8147C127.303 15.8519 125.951 17.315 123.599 17.315Z" fill="#CCFF00"/>
<path d="M21.5433 15V5.07316H23.8398L23.8953 6.8511C24.4139 5.4806 25.5066 4.85091 26.8956 4.85091C29.0254 4.85091 29.9885 6.38809 29.9885 8.57348V15H27.4697V9.14761C27.4697 7.66599 26.9697 6.98074 25.9511 6.98074C24.9139 6.98074 24.062 7.74007 24.062 9.25873V15H21.5433ZM35.4632 15.2222C33.6297 15.2222 32.1666 14.1666 32.1666 12.4257C32.1666 10.7589 33.2964 9.8699 35.1854 9.46245L38.1672 8.81424C38.1672 7.57339 37.7042 6.86962 36.5559 6.86962C35.5373 6.86962 35.0373 7.42523 34.8706 8.22159L32.2778 8.07343C32.6482 6.12881 34.2224 4.85091 36.5189 4.85091C39.371 4.85091 40.686 6.36957 40.686 8.9624V12.4627C40.686 12.9628 40.8712 13.1109 41.2045 13.1109H41.612V15C41.4638 15.037 41.0749 15.0741 40.7045 15.0741C39.4636 15.0741 38.7043 14.5185 38.445 13.5184C38.019 14.5185 36.9449 15.2222 35.4632 15.2222ZM35.9818 13.3332C37.3708 13.3332 38.1672 12.5368 38.1672 11.1848V10.5922L35.9633 11.0737C35.0743 11.2589 34.741 11.6108 34.741 12.296C34.741 12.9628 35.1854 13.3332 35.9818 13.3332ZM42.9382 15V5.07316H44.9939L45.0495 6.55477C45.4199 5.42504 46.0681 4.85091 46.9386 4.85091C47.9757 4.85091 48.4943 5.44356 48.735 6.6659C49.1239 5.4806 49.8833 4.85091 50.8834 4.85091C52.3465 4.85091 53.0132 5.86953 53.0132 8.11047V15H50.6611V8.61052C50.6611 7.33262 50.4389 6.98074 49.9388 6.98074C49.4203 6.98074 49.0684 7.46227 49.0684 8.62904V15H46.883V8.61052C46.883 7.38818 46.6793 6.98074 46.1607 6.98074C45.6236 6.98074 45.2903 7.46227 45.2903 8.62904V15H42.9382ZM59.1547 15.2222C56.3581 15.2222 54.432 13.185 54.432 10.0366C54.432 6.9437 56.3211 4.85091 59.1176 4.85091C61.8586 4.85091 63.7662 6.90666 63.7662 10.0921V10.7218H57.0248C57.136 12.2034 57.9694 12.9998 59.2102 12.9998C60.1177 12.9998 60.7845 12.5368 61.0437 11.796L63.5625 11.9627C62.8958 14.0555 61.3771 15.2222 59.1547 15.2222ZM57.0619 8.99945H61.0808C60.9511 7.72155 60.1918 7.07334 59.0991 7.07334C57.9694 7.07334 57.2286 7.74007 57.0619 8.99945ZM68.7224 8.22159V5.44356H71.6486V8.22159H68.7224ZM68.7224 15V12.2034H71.6486V15H68.7224ZM77.0122 15V12.8517L82.4942 7.07334H77.1974V5.07316H85.4019V7.2215L79.9199 12.9998H85.5686V15H77.0122ZM91.7101 3.85082V1.66543H94.2658V3.85082H91.7101ZM88.0986 15V12.9998H91.7841V7.07334H88.2838V5.07316H94.3029V12.9998H97.4328V15H88.0986ZM101.982 15L98.6109 5.07316H101.259L103.5 12.259L105.741 5.07316H108.39L105.019 15H101.982Z" fill="#FAFAFA"/>
</svg>
